<svg xmlns="http://www.w3.org/2000/svg" xmlns:xlink="http://www.w3.org/1999/xlink" width="500" zoomAndPan="magnify" viewBox="0 0 375 374.999991" height="500" preserveAspectRatio="xMidYMid meet" version="1.0"><defs><clipPath id="3797f3ad4c"><path d="M 187.5 0 C 83.945312 0 0 83.945312 0 187.5 C 0 291.054688 83.945312 375 187.5 375 C 291.054688 375 375 291.054688 375 187.5 C 375 83.945312 291.054688 0 187.5 0 " clip-rule="nonzero"/></clipPath><clipPath id="6904bb56f8"><path d="M 104 41 L 301 41 L 301 337.375 L 104 337.375 Z M 104 41 " clip-rule="nonzero"/></clipPath></defs><g clip-path="url(#3797f3ad4c)"><rect x="-37.5" width="450" fill="#5cb0bb" y="-37.499999" height="449.999989" fill-opacity="1"/></g><g clip-path="url(#6904bb56f8)"><path fill="#000000" d="M 279.507812 88.730469 C 262.347656 64.671875 240.621094 49.71875 214.933594 44.285156 C 185.824219 38.128906 158.304688 43.589844 137.457031 59.65625 C 119.007812 73.867188 110.496094 92.265625 106.601562 105.195312 C 105.53125 108.742188 107.539062 112.484375 111.085938 113.554688 C 114.636719 114.621094 118.375 112.613281 119.445312 109.066406 C 122.773438 98.019531 130.015625 82.324219 145.640625 70.285156 C 163.332031 56.65625 186.953125 52.085938 212.160156 57.414062 C 234.453125 62.132812 253.441406 75.289062 268.585938 96.523438 C 285.390625 120.082031 288.132812 142.398438 287.472656 156.972656 C 285.796875 193.933594 261.507812 218.757812 256.65625 223.359375 C 247.476562 232.0625 237.78125 237.929688 229.230469 243.101562 C 217.5625 250.160156 207.484375 256.253906 203.21875 266.90625 C 200.824219 272.878906 198.554688 278.996094 196.546875 284.390625 C 194.335938 290.34375 191.828125 297.085938 190.890625 298.707031 C 186.953125 305.523438 175.824219 321.589844 157.570312 323.574219 C 154.5 323.90625 138.625 324.964844 127.402344 313.007812 C 118.394531 303.414062 115.628906 289.136719 120.1875 275.753906 C 121.382812 272.25 119.507812 268.4375 116 267.242188 C 112.492188 266.046875 108.683594 267.921875 107.488281 271.429688 C 101.328125 289.519531 105.210938 308.972656 117.621094 322.195312 C 130.828125 336.261719 148.378906 337.382812 155.972656 337.121094 C 157.339844 337.074219 158.382812 336.980469 159.019531 336.914062 C 169.742188 335.746094 179.617188 331.117188 188.378906 323.148438 C 195.144531 316.992188 199.796875 310.109375 202.507812 305.425781 C 203.941406 302.9375 205.761719 298.105469 209.121094 289.066406 C 211.101562 283.742188 213.339844 277.714844 215.671875 271.894531 C 218.269531 265.414062 226.167969 260.632812 236.171875 254.582031 C 245.304688 249.058594 255.65625 242.800781 265.886719 233.097656 C 271.394531 227.875 298.964844 199.6875 300.875 157.578125 C 301.628906 140.894531 298.535156 115.40625 279.507812 88.730469 " fill-opacity="1" fill-rule="nonzero"/></g><path fill="#000000" d="M 133.625 203.742188 C 129.65625 207.859375 125.550781 212.113281 125.410156 219.574219 C 125.203125 230.210938 133.003906 239.972656 149.257812 249.414062 C 150.390625 250.070312 151.632812 250.359375 152.851562 250.320312 C 155.082031 250.242188 157.222656 249.054688 158.425781 246.980469 C 160.289062 243.777344 159.199219 239.671875 155.996094 237.8125 C 144.824219 231.320312 138.722656 224.933594 138.820312 219.832031 C 138.859375 217.855469 139.757812 216.710938 143.28125 213.058594 C 146.523438 209.695312 150.960938 205.09375 154.714844 197.480469 C 161.882812 182.933594 161.472656 167.9375 160.460938 158.589844 C 176.667969 154.855469 187.417969 158.902344 193.660156 163.070312 C 202.15625 168.746094 206.011719 176.851562 206.785156 182.546875 C 208.804688 197.429688 205.375 208.535156 197.121094 213.820312 L 196.921875 213.949219 C 193.8125 215.964844 192.925781 220.121094 194.941406 223.230469 C 196.269531 225.28125 198.527344 226.367188 200.804688 226.285156 C 201.980469 226.246094 203.160156 225.898438 204.214844 225.210938 L 204.355469 225.121094 C 211.828125 220.335938 223.804688 208.207031 220.078125 180.742188 C 218.566406 169.609375 211.472656 158.832031 201.109375 151.910156 C 192.75 146.328125 178.664062 140.851562 158.253906 145.335938 C 156.714844 139.152344 154.753906 134.914062 153.210938 131.574219 C 151.269531 127.382812 150.382812 125.46875 150.980469 121.9375 C 153.105469 109.375 169.675781 98.988281 183.808594 96.570312 C 206.621094 92.667969 231.890625 107.96875 241.335938 131.40625 C 251.507812 156.640625 238.179688 180.1875 235.402344 184.652344 C 233.445312 187.800781 234.410156 191.9375 237.558594 193.894531 C 240.703125 195.851562 244.839844 194.886719 246.796875 191.738281 C 250.171875 186.308594 266.375 157.636719 253.777344 126.386719 C 248.183594 112.511719 237.804688 100.429688 224.550781 92.371094 C 210.992188 84.125 195.71875 80.917969 181.546875 83.34375 C 162.753906 86.558594 141.019531 100.394531 137.753906 119.699219 C 136.464844 127.332031 138.789062 132.355469 141.035156 137.210938 C 143.003906 141.46875 145.238281 146.292969 146.480469 155.027344 C 147.511719 162.285156 149.65625 177.394531 142.679688 191.546875 C 139.855469 197.28125 136.546875 200.714844 133.625 203.742188 " fill-opacity="1" fill-rule="nonzero"/></svg>