<svg xmlns="http://www.w3.org/2000/svg" xmlns:xlink="http://www.w3.org/1999/xlink" width="500" zoomAndPan="magnify" viewBox="0 0 375 374.999991" height="500" preserveAspectRatio="xMidYMid meet" version="1.0"><defs><clipPath id="addc2520f4"><path d="M 187.5 0 C 83.945312 0 0 83.945312 0 187.5 C 0 291.054688 83.945312 375 187.5 375 C 291.054688 375 375 291.054688 375 187.5 C 375 83.945312 291.054688 0 187.5 0 " clip-rule="nonzero"/></clipPath><clipPath id="cb4a878647"><path d="M 143 47.03125 L 285.5 47.03125 L 285.5 312.984375 L 143 312.984375 Z M 143 47.03125 " clip-rule="nonzero"/></clipPath><clipPath id="437ad0dd85"><path d="M 97.273438 207.347656 L 227.726562 207.347656 L 227.726562 312.984375 L 97.273438 312.984375 Z M 97.273438 207.347656 " clip-rule="nonzero"/></clipPath></defs><g clip-path="url(#addc2520f4)"><rect x="-37.5" width="450" fill="#5cb0bb" y="-37.499999" height="449.999989" fill-opacity="1"/></g><g clip-path="url(#cb4a878647)"><path fill="#000000" d="M 285.492188 248.054688 C 285.1875 231.054688 272.488281 218.371094 253.261719 199.175781 C 250.78125 196.699219 248.214844 194.140625 245.507812 191.402344 C 191.667969 137.007812 183.988281 122.789062 178.902344 113.371094 C 178.453125 112.535156 178.019531 111.734375 177.585938 110.957031 C 168.265625 94.269531 162.203125 75.1875 159.566406 54.246094 C 159.292969 52.0625 158.183594 50.113281 156.441406 48.761719 C 154.699219 47.410156 152.535156 46.816406 150.347656 47.089844 C 145.828125 47.660156 142.617188 51.792969 143.1875 56.304688 C 146.085938 79.355469 152.808594 100.449219 163.164062 118.988281 C 163.558594 119.691406 163.945312 120.410156 164.351562 121.160156 L 164.375 121.210938 C 169.902344 131.449219 178.257812 146.921875 233.765625 203 C 236.472656 205.734375 239.027344 208.285156 241.496094 210.753906 L 241.589844 210.839844 C 258.554688 227.785156 268.796875 238.007812 268.984375 248.347656 C 269.269531 264.453125 260.742188 271.820312 255.101562 276.699219 C 254.417969 277.289062 253.714844 277.894531 253.070312 278.476562 C 236.238281 293.8125 213.238281 296.1875 204.132812 296.496094 C 199.582031 296.648438 196.007812 300.46875 196.160156 305.015625 C 196.3125 309.480469 199.933594 312.984375 204.40625 312.984375 C 204.503906 312.984375 204.597656 312.980469 204.691406 312.976562 C 218.273438 312.515625 244.066406 309.007812 264.199219 290.664062 C 264.679688 290.230469 265.269531 289.714844 265.902344 289.171875 C 272.898438 283.128906 285.917969 271.878906 285.492188 248.054688 " fill-opacity="1" fill-rule="nonzero"/></g><g clip-path="url(#437ad0dd85)"><path fill="#000000" d="M 218.683594 273.441406 C 220.882812 273.535156 222.996094 272.777344 224.625 271.289062 C 226.25 269.804688 227.203125 267.777344 227.304688 265.574219 C 227.402344 263.375 226.640625 261.269531 225.152344 259.640625 C 223.667969 258.011719 221.632812 257.0625 219.433594 256.960938 C 207.621094 256.425781 196.636719 258.394531 186.78125 262.816406 C 173.480469 268.785156 166.183594 276.128906 164.265625 278.234375 L 163.796875 278.75 C 151.640625 292.125 147.613281 294.609375 146.441406 295.058594 C 139.203125 297.828125 128.316406 294.683594 121.648438 287.894531 C 112.871094 278.945312 113.1875 266.554688 114.445312 256.761719 C 116.242188 242.753906 125.292969 226.503906 129.738281 220.914062 C 132.570312 217.355469 131.976562 212.15625 128.410156 209.328125 C 124.847656 206.5 119.644531 207.09375 116.8125 210.652344 C 110.328125 218.804688 100.226562 237.847656 98.066406 254.664062 C 96.46875 267.101562 95.957031 285.273438 109.859375 299.4375 C 117.90625 307.636719 129.398438 312.53125 140.605469 312.53125 C 144.808594 312.53125 148.761719 311.832031 152.355469 310.460938 C 159 307.914062 167.65625 299.042969 176.023438 289.835938 L 176.480469 289.328125 C 179.1875 286.355469 185.28125 281.574219 193.546875 277.863281 C 201.023438 274.511719 209.480469 273.019531 218.683594 273.441406 " fill-opacity="1" fill-rule="nonzero"/></g></svg>