<svg xmlns="http://www.w3.org/2000/svg" xmlns:xlink="http://www.w3.org/1999/xlink" width="500" zoomAndPan="magnify" viewBox="0 0 375 374.999991" height="500" preserveAspectRatio="xMidYMid meet" version="1.0"><defs><clipPath id="f209650712"><path d="M 312.113281 45.46875 L 331.296875 45.46875 L 331.296875 145.433594 L 312.113281 145.433594 Z M 312.113281 45.46875 " clip-rule="nonzero"/></clipPath><clipPath id="181be443e5"><path d="M 331.035156 145.339844 L 324.625 45.738281 C 320.679688 49.789062 317.691406 54.453125 315.664062 59.730469 C 313.636719 65.007812 312.730469 70.46875 312.949219 76.117188 C 313.5 87.453125 319.179688 98.609375 319.179688 98.609375 L 320.578125 120.265625 Z M 331.035156 145.339844 " clip-rule="nonzero"/></clipPath><clipPath id="5fa294972f"><path d="M 312.113281 56 L 331.296875 56 L 331.296875 102 L 312.113281 102 Z M 312.113281 56 " clip-rule="nonzero"/></clipPath><clipPath id="40c2100d61"><path d="M 331.035156 145.339844 L 324.625 45.738281 C 320.679688 49.789062 317.691406 54.453125 315.664062 59.730469 C 313.636719 65.007812 312.730469 70.46875 312.949219 76.117188 C 313.5 87.453125 319.179688 98.609375 319.179688 98.609375 L 320.578125 120.265625 Z M 331.035156 145.339844 " clip-rule="nonzero"/></clipPath><clipPath id="6a3fb55f30"><path d="M 131.320312 117.882812 L 172.167969 117.882812 L 172.167969 189.265625 L 131.320312 189.265625 Z M 131.320312 117.882812 " clip-rule="nonzero"/></clipPath><clipPath id="7a2c4c7860"><path d="M 131.320312 127 L 172.167969 127 L 172.167969 163 L 131.320312 163 Z M 131.320312 127 " clip-rule="nonzero"/></clipPath><clipPath id="8f9ae0ec22"><path d="M 80.273438 0 L 197 0 L 197 106 L 80.273438 106 Z M 80.273438 0 " clip-rule="nonzero"/></clipPath><clipPath id="54128c9c71"><path d="M 103.839844 80.816406 C 103.839844 80.816406 119.6875 62.832031 140.460938 50.21875 C 161.234375 37.605469 196.335938 43.921875 196.335938 43.921875 C 194.457031 34.519531 190.941406 25.777344 185.792969 17.6875 C 184.226562 15.230469 179.839844 8.359375 175.476562 4.945312 C 153.421875 -12.339844 82.382812 19.328125 80.40625 54.859375 C 79.949219 63.1875 83.25 71.734375 84.820312 75.808594 C 89.441406 87.644531 96.703125 97.546875 106.609375 105.515625 C 105.691406 97.285156 104.769531 89.050781 103.839844 80.816406 Z M 103.839844 80.816406 " clip-rule="nonzero"/></clipPath><clipPath id="0ac359dd22"><path d="M 80.273438 19 L 126 19 L 126 106 L 80.273438 106 Z M 80.273438 19 " clip-rule="nonzero"/></clipPath><clipPath id="1b40f5b5b0"><path d="M 103.839844 80.816406 C 103.839844 80.816406 119.6875 62.832031 140.460938 50.21875 C 161.234375 37.605469 196.335938 43.921875 196.335938 43.921875 C 194.457031 34.519531 190.941406 25.777344 185.792969 17.6875 C 184.226562 15.230469 179.839844 8.359375 175.476562 4.945312 C 153.421875 -12.339844 82.382812 19.328125 80.40625 54.859375 C 79.949219 63.1875 83.25 71.734375 84.820312 75.808594 C 89.441406 87.644531 96.703125 97.546875 106.609375 105.515625 C 105.691406 97.285156 104.769531 89.050781 103.839844 80.816406 Z M 103.839844 80.816406 " clip-rule="nonzero"/></clipPath></defs><path fill="#287eef" d="M 347.25 152.136719 C 345.898438 135.136719 331.1875 126.316406 329.734375 125.480469 L 315.035156 157.019531 L 318.042969 172.28125 L 310.789062 186.117188 C 310.789062 186.117188 326.066406 198.519531 338.082031 193.03125 L 341.59375 173.089844 C 343.675781 170.007812 345.203125 166.671875 346.167969 163.085938 C 347.136719 159.496094 347.5 155.847656 347.25 152.136719 Z M 347.25 152.136719 " fill-opacity="1" fill-rule="nonzero"/><g clip-path="url(#f209650712)"><g clip-path="url(#181be443e5)"><path fill="#86ebf9" d="M 331.035156 145.339844 L 324.625 45.738281 C 322.671875 47.742188 320.941406 49.921875 319.433594 52.277344 C 317.925781 54.636719 316.667969 57.117188 315.664062 59.730469 C 314.660156 62.339844 313.929688 65.027344 313.472656 67.785156 C 313.015625 70.546875 312.839844 73.320312 312.949219 76.117188 C 313.5 87.453125 319.179688 98.609375 319.179688 98.609375 L 320.578125 120.265625 Z M 331.035156 145.339844 " fill-opacity="1" fill-rule="nonzero"/></g></g><g clip-path="url(#5fa294972f)"><g clip-path="url(#40c2100d61)"><path fill="#e8e7e3" d="M 330.136719 56.242188 L 304.074219 91.917969 L 307.792969 98.300781 L 330.671875 64.472656 L 333.957031 67.796875 L 311.332031 98.074219 L 314.558594 101.398438 L 336.839844 68.554688 Z M 330.136719 56.242188 " fill-opacity="1" fill-rule="nonzero"/></g></g><path fill="#40c2d6" d="M 329.351562 165.140625 L 324.898438 165.425781 C 324.5625 165.445312 324.226562 165.433594 323.894531 165.390625 C 323.5625 165.34375 323.234375 165.265625 322.917969 165.15625 C 322.597656 165.042969 322.296875 164.902344 322.007812 164.730469 C 321.71875 164.554688 321.449219 164.355469 321.199219 164.128906 C 320.949219 163.902344 320.726562 163.652344 320.527344 163.382812 C 320.332031 163.109375 320.160156 162.820312 320.019531 162.515625 C 319.882812 162.210938 319.773438 161.890625 319.695312 161.566406 C 319.621094 161.238281 319.578125 160.90625 319.570312 160.570312 L 318.042969 106.003906 C 318.035156 105.683594 318.054688 105.367188 318.105469 105.046875 C 318.160156 104.730469 318.242188 104.421875 318.351562 104.121094 C 318.464844 103.820312 318.601562 103.53125 318.769531 103.257812 C 318.9375 102.980469 319.128906 102.726562 319.347656 102.488281 C 319.5625 102.25 319.800781 102.035156 320.058594 101.84375 C 320.316406 101.652344 320.589844 101.488281 320.878906 101.347656 C 321.171875 101.210938 321.472656 101.097656 321.78125 101.019531 C 322.09375 100.9375 322.410156 100.886719 322.730469 100.867188 L 323.207031 100.867188 C 323.527344 100.84375 323.847656 100.855469 324.167969 100.894531 C 324.484375 100.933594 324.796875 101.003906 325.101562 101.105469 C 325.410156 101.207031 325.703125 101.335938 325.980469 101.492188 C 326.261719 101.648438 326.527344 101.828125 326.773438 102.039062 C 327.015625 102.246094 327.242188 102.472656 327.441406 102.722656 C 327.644531 102.976562 327.820312 103.242188 327.96875 103.527344 C 328.117188 103.8125 328.238281 104.105469 328.332031 104.414062 C 328.425781 104.722656 328.488281 105.035156 328.519531 105.355469 L 334.023438 159.660156 C 334.054688 159.996094 334.054688 160.328125 334.019531 160.664062 C 333.988281 160.996094 333.917969 161.324219 333.820312 161.644531 C 333.71875 161.964844 333.585938 162.273438 333.425781 162.566406 C 333.261719 162.863281 333.070312 163.136719 332.855469 163.390625 C 332.636719 163.648438 332.394531 163.878906 332.128906 164.085938 C 331.863281 164.292969 331.582031 164.472656 331.28125 164.625 C 330.980469 164.773438 330.667969 164.890625 330.34375 164.980469 C 330.019531 165.066406 329.6875 165.121094 329.351562 165.140625 Z M 329.351562 165.140625 " fill-opacity="1" fill-rule="nonzero"/><path fill="#287eef" d="M 323.421875 125.074219 C 319.953125 125.90625 314.457031 133.828125 311.804688 140.941406 C 309.152344 148.054688 312.890625 168.890625 312.890625 168.890625 L 304.882812 193.046875 L 316.703125 193.046875 L 321.964844 169.589844 L 319.902344 162.25 C 319.902344 162.25 319.277344 150.324219 321.964844 143.410156 C 324.648438 136.496094 326.882812 124.265625 323.421875 125.074219 Z M 323.421875 125.074219 " fill-opacity="1" fill-rule="nonzero"/><path fill="#287eef" d="M 350.550781 150.304688 C 353.679688 146.507812 349.558594 143.25 349.558594 143.25 C 352.6875 139.859375 347.441406 136.335938 347.441406 136.335938 C 347.761719 135.984375 348.007812 135.582031 348.179688 135.140625 C 348.351562 134.695312 348.4375 134.234375 348.4375 133.757812 C 348.4375 133.28125 348.351562 132.820312 348.179688 132.375 C 348.007812 131.929688 347.761719 131.53125 347.441406 131.179688 C 345.054688 128.164062 329.242188 118.335938 327.015625 121.550781 C 326.242188 122.667969 326.925781 125.632812 335.355469 134.535156 C 330.703125 137.484375 320.796875 144.53125 325.683594 147.03125 C 327.757812 148.105469 331.027344 146.847656 334.441406 144.023438 C 331.835938 146.648438 328.476562 150.6875 329.601562 152.929688 C 329.851562 153.398438 330.210938 153.753906 330.679688 154.003906 C 332.597656 154.988281 335.808594 153.363281 338.925781 149.980469 C 334.605469 162.144531 334.839844 166.640625 343.339844 156.792969 L 341.621094 173.070312 C 341.621094 173.070312 347.140625 162.375 350.476562 157.761719 C 353.8125 153.144531 350.550781 150.304688 350.550781 150.304688 Z M 350.550781 150.304688 " fill-opacity="1" fill-rule="nonzero"/><path fill="#2d1929" d="M 331.496094 136.636719 C 331.636719 136.535156 335.183594 134.136719 337.25 133.527344 C 339.316406 132.921875 346.75 135.628906 347.589844 135.945312 C 347.699219 135.984375 347.773438 136.058594 347.820312 136.160156 C 347.867188 136.265625 347.871094 136.371094 347.832031 136.476562 C 347.789062 136.585938 347.714844 136.664062 347.613281 136.710938 C 347.507812 136.757812 347.398438 136.765625 347.289062 136.726562 C 345.097656 135.894531 339.050781 133.855469 337.492188 134.328125 C 335.539062 134.910156 331.996094 137.300781 331.960938 137.328125 C 331.867188 137.390625 331.761719 137.414062 331.648438 137.390625 C 331.535156 137.367188 331.449219 137.308594 331.382812 137.214844 C 331.320312 137.117188 331.296875 137.015625 331.320312 136.902344 C 331.34375 136.789062 331.402344 136.699219 331.496094 136.636719 Z M 331.496094 136.636719 " fill-opacity="1" fill-rule="nonzero"/><path fill="#2d1929" d="M 335.972656 134.910156 C 335.707031 134.910156 336.066406 135.160156 330.746094 130.011719 C 330.664062 129.933594 330.625 129.835938 330.625 129.722656 C 330.625 129.609375 330.664062 129.511719 330.746094 129.429688 C 330.828125 129.347656 330.925781 129.308594 331.042969 129.308594 C 331.15625 129.308594 331.253906 129.347656 331.335938 129.429688 L 336.273438 134.203125 C 336.402344 134.335938 336.433594 134.488281 336.359375 134.65625 C 336.289062 134.828125 336.160156 134.914062 335.972656 134.910156 Z M 335.972656 134.910156 " fill-opacity="1" fill-rule="nonzero"/><path fill="#2d1929" d="M 332.269531 146.640625 C 332.089844 146.640625 331.960938 146.558594 331.886719 146.390625 C 331.8125 146.226562 331.839844 146.074219 331.960938 145.941406 C 332.097656 145.800781 335.238281 142.507812 337.351562 141.867188 C 339.460938 141.226562 348.582031 142.699219 349.625 142.84375 C 349.742188 142.859375 349.832031 142.917969 349.902344 143.011719 C 349.96875 143.105469 349.996094 143.210938 349.976562 143.324219 C 349.957031 143.441406 349.902344 143.53125 349.808594 143.601562 C 349.710938 143.667969 349.609375 143.691406 349.492188 143.675781 C 346.722656 143.234375 339.183594 142.191406 337.59375 142.675781 C 335.691406 143.25 332.589844 146.492188 332.589844 146.523438 C 332.5 146.609375 332.394531 146.648438 332.269531 146.640625 Z M 332.269531 146.640625 " fill-opacity="1" fill-rule="nonzero"/><path fill="#2d1929" d="M 333.265625 153.65625 C 334.804688 152.554688 339.933594 148.972656 340.910156 148.972656 C 341.886719 148.972656 349.25 149.65625 349.601562 149.6875 C 349.714844 149.699219 349.808594 149.75 349.882812 149.839844 C 349.957031 149.929688 349.988281 150.03125 349.976562 150.148438 C 349.964844 150.261719 349.914062 150.355469 349.824219 150.429688 C 349.734375 150.503906 349.632812 150.535156 349.519531 150.523438 C 346.867188 150.28125 341.644531 149.8125 340.910156 149.8125 C 340.335938 149.863281 336.816406 152.15625 333.746094 154.335938 C 333.652344 154.402344 333.550781 154.425781 333.433594 154.40625 C 333.320312 154.386719 333.230469 154.332031 333.164062 154.234375 C 333.097656 154.140625 333.074219 154.039062 333.09375 153.925781 C 333.113281 153.8125 333.171875 153.722656 333.265625 153.65625 Z M 333.265625 153.65625 " fill-opacity="1" fill-rule="nonzero"/><path fill="#2d1929" d="M 340.910156 165.265625 C 340.742188 165.265625 340.621094 165.1875 340.546875 165.039062 C 340.46875 164.886719 340.480469 164.746094 340.578125 164.609375 C 341.585938 163.199219 344.964844 158.042969 343.570312 156.976562 C 343.21875 156.792969 342.851562 156.765625 342.46875 156.886719 C 341.851562 157.453125 337.824219 160.96875 334.839844 159.386719 C 332.121094 157.96875 334.839844 153.664062 336.859375 151.398438 C 336.9375 151.3125 337.035156 151.269531 337.148438 151.269531 C 337.265625 151.269531 337.363281 151.3125 337.441406 151.398438 C 337.53125 151.472656 337.578125 151.566406 337.585938 151.679688 C 337.59375 151.792969 337.558594 151.894531 337.484375 151.980469 C 336.023438 153.644531 333.238281 157.644531 335.222656 158.644531 C 337.875 160.027344 341.9375 156.21875 341.96875 156.1875 C 342.273438 156.003906 342.601562 155.917969 342.957031 155.929688 C 343.308594 155.9375 343.632812 156.039062 343.925781 156.238281 C 344.21875 156.433594 344.4375 156.695312 344.582031 157.019531 C 344.722656 157.34375 344.765625 157.679688 344.714844 158.027344 C 344.605469 160.367188 341.378906 164.875 341.253906 165.066406 C 341.175781 165.195312 341.0625 165.261719 340.910156 165.265625 Z M 340.910156 165.265625 " fill-opacity="1" fill-rule="nonzero"/><g clip-path="url(#6a3fb55f30)"><path fill="#f5b493" d="M 131.320312 117.882812 L 172.167969 117.882812 L 172.167969 189.265625 L 131.320312 189.265625 Z M 131.320312 117.882812 " fill-opacity="1" fill-rule="nonzero"/></g><g clip-path="url(#7a2c4c7860)"><path fill="#eba284" d="M 131.0625 127.355469 C 131.0625 127.355469 138.941406 155.835938 175.5625 162.191406 L 175.5625 138.867188 Z M 131.0625 127.355469 " fill-opacity="1" fill-rule="nonzero"/></g><path fill="#86ebf9" d="M 156.0625 165 C 179.414062 160.769531 209.546875 159.277344 226.191406 176.9375 C 230.46875 181.46875 231.960938 185.515625 237.03125 194.847656 C 246.621094 212.3125 257.832031 228.667969 270.667969 243.910156 L 311.574219 172.515625 L 341.851562 191.363281 C 334.921875 228.851562 325.417969 257.375 317.820312 273.160156 C 311.9375 285.371094 302.808594 298.773438 290.296875 303.898438 C 267.921875 313.019531 232.945312 290.054688 200.589844 248.285156 C 200.582031 248.285156 125.308594 207.074219 156.0625 165 Z M 156.0625 165 " fill-opacity="1" fill-rule="nonzero"/><path fill="#f5b493" d="M 208.210938 88.046875 C 205.894531 78.773438 202.941406 73.316406 201.621094 67.21875 C 198.386719 52.132812 198.695312 40.339844 186.511719 31.308594 C 182.695312 27.800781 178.453125 24.910156 173.785156 22.644531 C 156.722656 13.074219 130.660156 15.890625 114.683594 31.175781 C 96.269531 48.777344 99.671875 74.835938 100.503906 81.308594 C 104.433594 111.527344 127.925781 129.296875 138.035156 135.652344 C 143.597656 139.828125 149.613281 143.199219 156.082031 145.773438 C 163.253906 148.53125 182.449219 155.9375 194.441406 146 C 197.578125 143.398438 201.582031 137.351562 205.535156 123.832031 C 210.636719 106.355469 210.53125 97.324219 208.210938 88.046875 Z M 208.210938 88.046875 " fill-opacity="1" fill-rule="nonzero"/><path fill="#2d1929" d="M 183.75 104.171875 C 186.703125 102.023438 188.113281 100.007812 187.921875 98.234375 C 187.703125 96.058594 185.175781 94.953125 182.550781 92.636719 C 180.78125 91 179.269531 89.15625 178.011719 87.101562 C 176.753906 85.050781 175.796875 82.867188 175.144531 80.546875 C 175.109375 80.433594 175.121094 80.324219 175.179688 80.21875 C 175.234375 80.113281 175.320312 80.042969 175.4375 80.007812 C 175.550781 79.972656 175.664062 79.984375 175.769531 80.039062 C 175.875 80.097656 175.945312 80.183594 175.980469 80.296875 C 180.199219 93.84375 188.3125 93.453125 188.78125 98.148438 C 188.988281 100.257812 187.46875 102.507812 184.261719 104.816406 C 184.054688 104.921875 183.882812 104.882812 183.738281 104.703125 C 183.597656 104.523438 183.601562 104.347656 183.75 104.171875 Z M 183.75 104.171875 " fill-opacity="1" fill-rule="nonzero"/><path fill="#2d1929" d="M 195.625 78.324219 C 194.925781 74.933594 192.582031 72.550781 190.382812 73 C 188.179688 73.453125 186.980469 76.566406 187.679688 79.957031 C 188.378906 83.347656 190.722656 85.730469 192.917969 85.28125 C 195.109375 84.832031 196.328125 81.714844 195.625 78.324219 Z M 195.625 78.324219 " fill-opacity="1" fill-rule="nonzero"/><path fill="#2d1929" d="M 156.164062 80.046875 C 153.960938 80.5 152.753906 83.613281 153.453125 87.003906 C 154.152344 90.394531 156.496094 92.777344 158.699219 92.320312 C 160.902344 91.859375 162.101562 88.753906 161.402344 85.363281 C 160.699219 81.972656 158.390625 79.625 156.164062 80.046875 Z M 156.164062 80.046875 " fill-opacity="1" fill-rule="nonzero"/><path fill="#2d1929" d="M 177.746094 124 C 172.292969 124 167.230469 122.242188 163.695312 118.167969 C 163.636719 118.082031 163.613281 117.984375 163.628906 117.878906 C 163.640625 117.777344 163.6875 117.691406 163.765625 117.621094 C 163.847656 117.550781 163.941406 117.519531 164.042969 117.519531 C 164.148438 117.519531 164.242188 117.554688 164.320312 117.625 C 171.582031 125.957031 184.050781 122.390625 184.175781 122.347656 C 184.292969 122.316406 184.402344 122.328125 184.507812 122.386719 C 184.613281 122.445312 184.679688 122.53125 184.714844 122.644531 C 184.746094 122.761719 184.734375 122.871094 184.679688 122.976562 C 184.621094 123.078125 184.535156 123.148438 184.417969 123.183594 C 182.230469 123.753906 180.007812 124.027344 177.746094 124 Z M 177.746094 124 " fill-opacity="1" fill-rule="nonzero"/><path fill="#2d1929" d="M 176.414062 63.121094 C 176.050781 63.121094 175.796875 62.957031 175.652344 62.625 C 175.503906 62.296875 175.554688 62 175.796875 61.730469 C 175.878906 61.648438 183.800781 53.160156 194.492188 57.664062 C 194.703125 57.753906 194.851562 57.90625 194.941406 58.121094 C 195.027344 58.332031 195.023438 58.546875 194.933594 58.757812 C 194.84375 58.96875 194.691406 59.117188 194.480469 59.203125 C 194.265625 59.289062 194.054688 59.289062 193.84375 59.199219 C 184.25 55.15625 177.3125 62.53125 177.03125 62.855469 C 176.863281 63.035156 176.65625 63.125 176.414062 63.121094 Z M 176.414062 63.121094 " fill-opacity="1" fill-rule="nonzero"/><path fill="#2d1929" d="M 142.820312 70.460938 C 142.484375 70.460938 142.238281 70.3125 142.082031 70.011719 C 141.925781 69.714844 141.945312 69.429688 142.136719 69.152344 C 148.726562 59.605469 159.976562 62.488281 160.082031 62.488281 C 160.195312 62.511719 160.300781 62.554688 160.394531 62.621094 C 160.488281 62.6875 160.566406 62.765625 160.628906 62.863281 C 160.6875 62.960938 160.726562 63.066406 160.746094 63.179688 C 160.761719 63.296875 160.753906 63.40625 160.726562 63.519531 C 160.695312 63.628906 160.648438 63.730469 160.574219 63.820312 C 160.503906 63.910156 160.417969 63.984375 160.316406 64.039062 C 160.214844 64.09375 160.109375 64.125 159.992188 64.136719 C 159.878906 64.144531 159.765625 64.132812 159.65625 64.097656 C 159.242188 63.988281 149.417969 61.503906 143.511719 70.070312 C 143.351562 70.324219 143.121094 70.457031 142.820312 70.460938 Z M 142.820312 70.460938 " fill-opacity="1" fill-rule="nonzero"/><path fill="#86ebf9" d="M 143.078125 165.425781 C 109.789062 170.15625 95.210938 184.125 88.355469 196.886719 C 75.335938 221.113281 86.226562 248.003906 91.605469 299.222656 C 94.335938 324.425781 94.871094 349.671875 93.207031 374.960938 L 230.335938 374.960938 C 230.824219 353.453125 231.222656 328.113281 231.527344 298.941406 C 232.238281 221.335938 231.027344 201.820312 218.285156 186.074219 C 211.679688 177.921875 192.066406 158.5625 143.078125 165.425781 Z M 143.078125 165.425781 " fill-opacity="1" fill-rule="nonzero"/><path fill="#86ebf9" d="M 146.796875 165.425781 C 132.429688 164.191406 101.765625 163.816406 77.863281 183.75 C 69.582031 190.640625 63.109375 201.902344 50.160156 224.4375 C 31.035156 257.757812 21.527344 274.707031 24.089844 291.71875 C 26.175781 305.589844 33.746094 316.078125 42.011719 327.539062 C 49.824219 338.339844 59.058594 347.742188 69.714844 355.753906 L 97.417969 330.761719 L 71.339844 291.703125 L 101.765625 237.988281 C 107.726562 236.972656 121.453125 233.75 132.847656 222.160156 C 154.644531 199.855469 147.382812 167.78125 146.796875 165.425781 Z M 146.796875 165.425781 " fill-opacity="1" fill-rule="nonzero"/><path fill="#86ebf9" d="M 125.800781 155.480469 L 173.734375 155.480469 C 174.113281 155.480469 174.476562 155.550781 174.828125 155.695312 C 175.175781 155.839844 175.484375 156.046875 175.753906 156.3125 C 176.019531 156.582031 176.226562 156.886719 176.371094 157.238281 C 176.515625 157.585938 176.585938 157.949219 176.585938 158.328125 L 176.585938 179.761719 C 176.585938 180.140625 176.515625 180.503906 176.371094 180.851562 C 176.226562 181.199219 176.019531 181.507812 175.753906 181.777344 C 175.484375 182.042969 175.175781 182.25 174.828125 182.394531 C 174.476562 182.539062 174.113281 182.609375 173.734375 182.609375 L 125.800781 182.609375 C 125.421875 182.609375 125.058594 182.539062 124.707031 182.394531 C 124.359375 182.25 124.050781 182.042969 123.78125 181.777344 C 123.515625 181.507812 123.308594 181.199219 123.164062 180.851562 C 123.019531 180.503906 122.945312 180.140625 122.945312 179.761719 L 122.945312 158.328125 C 122.945312 157.949219 123.019531 157.585938 123.164062 157.238281 C 123.308594 156.886719 123.515625 156.582031 123.78125 156.3125 C 124.050781 156.046875 124.359375 155.839844 124.707031 155.695312 C 125.058594 155.550781 125.421875 155.480469 125.800781 155.480469 Z M 125.800781 155.480469 " fill-opacity="1" fill-rule="nonzero"/><path fill="#40c2d6" d="M 231.652344 281.914062 C 231.652344 281.914062 229.710938 220.371094 226.84375 201.828125 C 223.972656 183.285156 242.113281 244.976562 240.585938 289.210938 Z M 231.652344 281.914062 " fill-opacity="1" fill-rule="nonzero"/><path fill="#40c2d6" d="M 87.703125 269.609375 C 87.703125 269.609375 82.273438 216.789062 86.871094 216.238281 C 91.464844 215.6875 110.460938 309.539062 118.070312 325.296875 C 125.675781 341.058594 202.257812 305.765625 205.515625 311.738281 C 208.777344 317.710938 158.257812 339.941406 164.238281 352.972656 C 170.214844 366 209.746094 374.9375 209.746094 374.9375 L 93.207031 374.9375 Z M 87.703125 269.609375 " fill-opacity="1" fill-rule="nonzero"/><path fill="#40c2d6" d="M 270.691406 243.910156 C 267.230469 264.988281 269.375 286.496094 270.691406 286.503906 C 272.441406 286.503906 271.21875 260.679688 282.148438 223.792969 Z M 270.691406 243.910156 " fill-opacity="1" fill-rule="nonzero"/><path fill="#40c2d6" d="M 71.339844 291.660156 C 49.441406 293.828125 33.230469 296.527344 55.113281 299.457031 C 62.15625 300.390625 69.167969 300.191406 76.144531 298.859375 Z M 71.339844 291.660156 " fill-opacity="1" fill-rule="nonzero"/><path fill="#287eef" d="M 64.101562 339.402344 C 64.101562 339.402344 75.3125 354.1875 83.515625 359.476562 C 91.722656 364.765625 112.707031 350.3125 118.125 351.148438 C 123.546875 351.980469 129.242188 357.992188 132.179688 354.0625 C 135.113281 350.128906 119.519531 342.125 119.519531 342.125 C 119.519531 342.125 124.972656 341.582031 127.441406 342.800781 C 129.910156 344.015625 133.105469 348.363281 135.472656 346.875 C 137.839844 345.382812 133.253906 339.375 133.253906 339.375 C 133.253906 339.375 137.375 343.449219 139.175781 342.023438 C 140.976562 340.601562 136.964844 334.363281 136.964844 334.363281 C 136.964844 334.363281 141.027344 337.695312 142.371094 335.578125 C 143.710938 333.460938 134.480469 322.03125 130.804688 319.46875 C 127.125 316.902344 98.054688 324.890625 98.054688 324.890625 L 86.777344 318.5 C 86.777344 318.5 66.097656 321.972656 64.101562 339.402344 Z M 64.101562 339.402344 " fill-opacity="1" fill-rule="nonzero"/><path fill="#86ebf9" d="M 50.433594 328.554688 C 51.640625 331.121094 53.070312 333.554688 54.730469 335.859375 C 56.386719 338.160156 58.242188 340.289062 60.292969 342.25 C 62.34375 344.207031 64.558594 345.960938 66.9375 347.511719 C 69.3125 349.058594 71.8125 350.375 74.4375 351.464844 C 82.3125 342.578125 90.199219 333.71875 98.085938 324.890625 L 78.570312 302.441406 Z M 50.433594 328.554688 " fill-opacity="1" fill-rule="nonzero"/><path fill="#2d1929" d="M 136.984375 334.804688 C 136.828125 334.800781 136.707031 334.734375 136.625 334.601562 C 134.355469 330.835938 130.394531 325.074219 128.816406 324.605469 C 126.632812 323.964844 119.578125 325.28125 119.511719 325.289062 C 119.394531 325.3125 119.289062 325.289062 119.191406 325.222656 C 119.09375 325.160156 119.035156 325.066406 119.015625 324.953125 C 118.992188 324.835938 119.015625 324.730469 119.082031 324.632812 C 119.148438 324.539062 119.238281 324.476562 119.351562 324.457031 C 119.652344 324.398438 126.675781 323.089844 129.050781 323.789062 C 131.429688 324.488281 136.742188 333.160156 137.339844 334.144531 C 137.433594 334.285156 137.441406 334.433594 137.359375 334.582031 C 137.277344 334.730469 137.152344 334.804688 136.984375 334.804688 Z M 136.984375 334.804688 " fill-opacity="1" fill-rule="nonzero"/><path fill="#2d1929" d="M 133.253906 339.816406 C 133.089844 339.816406 132.96875 339.746094 132.886719 339.601562 C 131.746094 337.460938 128.382812 331.84375 126.542969 331.539062 C 124.179688 331.324219 121.816406 331.324219 119.453125 331.539062 C 119.335938 331.546875 119.234375 331.515625 119.148438 331.441406 C 119.058594 331.367188 119.007812 331.273438 119 331.160156 C 118.988281 331.042969 119.019531 330.941406 119.09375 330.851562 C 119.167969 330.765625 119.261719 330.714844 119.378906 330.703125 C 121.8125 330.476562 124.25 330.476562 126.683594 330.703125 C 129.25 331.128906 133.1875 338.367188 133.628906 339.191406 C 133.710938 339.335938 133.710938 339.476562 133.625 339.617188 C 133.542969 339.757812 133.417969 339.824219 133.253906 339.816406 Z M 133.253906 339.816406 " fill-opacity="1" fill-rule="nonzero"/><path fill="#2d1929" d="M 112.964844 48.800781 C 113.65625 45.9375 115.617188 42.136719 125.390625 36.191406 C 134.164062 30.875 143.480469 25.246094 157.574219 24.59375 C 162.355469 24.382812 167.089844 24.753906 171.777344 25.703125 C 176.46875 26.652344 180.972656 28.15625 185.292969 30.210938 C 185.292969 30.210938 174.6875 10.140625 147.390625 13.816406 C 120.09375 17.488281 97.6875 25.410156 92.191406 42.503906 C 86.695312 59.597656 93.859375 96.125 104.40625 100.949219 C 105.40625 101.449219 106.460938 101.746094 107.574219 101.84375 C 108.683594 101.941406 109.777344 101.832031 110.847656 101.515625 C 114.90625 100.089844 116.683594 95 117.242188 93.367188 C 117.816406 91.648438 118.15625 89.886719 118.261719 88.078125 C 119.292969 76.292969 119.8125 70.402344 117.425781 65.695312 C 115.992188 62.839844 115.167969 63.039062 113.964844 59.996094 C 113.855469 59.671875 111.707031 54.042969 112.964844 48.800781 Z M 112.964844 48.800781 " fill-opacity="1" fill-rule="nonzero"/><g clip-path="url(#8f9ae0ec22)"><g clip-path="url(#54128c9c71)"><path fill="#86ebf9" d="M 103.839844 80.816406 C 103.839844 80.816406 119.6875 62.832031 140.460938 50.21875 C 161.234375 37.605469 196.335938 43.921875 196.335938 43.921875 C 194.457031 34.519531 190.941406 25.777344 185.792969 17.6875 C 184.226562 15.230469 179.839844 8.359375 175.476562 4.945312 C 153.421875 -12.339844 82.382812 19.328125 80.40625 54.859375 C 79.949219 63.1875 83.25 71.734375 84.820312 75.808594 C 87.089844 81.625 90.074219 87.050781 93.765625 92.085938 C 97.460938 97.121094 101.742188 101.597656 106.609375 105.515625 C 105.691406 97.285156 104.769531 89.050781 103.839844 80.816406 Z M 103.839844 80.816406 " fill-opacity="1" fill-rule="nonzero"/></g></g><g clip-path="url(#0ac359dd22)"><g clip-path="url(#1b40f5b5b0)"><path fill="#40c2d6" d="M 91.808594 19.863281 C 91.808594 19.863281 84.210938 46.179688 88.28125 55.125 C 92.347656 64.070312 117.34375 41.304688 121.414062 40.746094 C 125.480469 40.1875 106.203125 54.683594 106.203125 62.914062 C 106.203125 71.144531 125.839844 66.246094 125.839844 66.246094 L 101.3125 108.546875 L 69 95.035156 L 69 52.800781 L 83.117188 19.863281 Z M 91.808594 19.863281 " fill-opacity="1" fill-rule="nonzero"/></g></g><path fill="#c6c6c6" d="M 112.3125 80.390625 C 114.597656 80.121094 116.839844 80.324219 119.035156 81 C 121.960938 82.027344 124.464844 83.695312 126.542969 85.996094 C 129.394531 88.769531 134.214844 92.070312 142.761719 94.167969 L 142.9375 98.199219 C 126.140625 94.726562 122.804688 81.957031 113.429688 81.714844 C 112.347656 81.714844 109.730469 81.789062 109.679688 81.414062 C 109.628906 81.039062 111.128906 80.691406 112.3125 80.390625 Z M 112.3125 80.390625 " fill-opacity="1" fill-rule="nonzero"/><path fill="#c6c6c6" d="M 106.609375 105.515625 C 106.609375 105.515625 120.929688 129.980469 138.007812 135.652344 L 138.34375 131.5625 C 138.34375 131.5625 119.203125 119.507812 111.347656 105.515625 Z M 106.609375 105.515625 " fill-opacity="1" fill-rule="nonzero"/><path fill="#f5b493" d="M 123.457031 88.59375 C 119.101562 80.730469 110.328125 77.242188 103.839844 80.816406 C 97.351562 84.390625 95.625 93.660156 99.972656 101.523438 C 104.316406 109.386719 113.089844 112.886719 119.570312 109.3125 C 126.050781 105.738281 127.808594 96.46875 123.457031 88.59375 Z M 123.457031 88.59375 " fill-opacity="1" fill-rule="nonzero"/><path fill="#2d1929" d="M 119.269531 101.347656 C 119.226562 101.347656 114.683594 101.234375 113.757812 96.960938 C 113.171875 94.292969 116.484375 92.792969 117.800781 92.359375 C 116.71875 90.644531 112.457031 84.53125 107.644531 85.347656 C 103.117188 86.121094 103.875 91.246094 103.90625 91.460938 C 103.925781 91.574219 103.898438 91.679688 103.832031 91.769531 C 103.761719 91.863281 103.671875 91.917969 103.558594 91.9375 C 103.445312 91.953125 103.34375 91.925781 103.25 91.859375 C 103.160156 91.792969 103.101562 91.707031 103.082031 91.59375 C 103.082031 91.535156 102.15625 85.4375 107.503906 84.53125 C 113.640625 83.472656 118.59375 92.027344 118.792969 92.386719 C 118.863281 92.503906 118.871094 92.625 118.816406 92.75 C 118.765625 92.875 118.675781 92.957031 118.542969 92.992188 C 118.542969 92.992188 114.023438 94.292969 114.566406 96.785156 C 115.359375 100.417969 119.246094 100.515625 119.285156 100.515625 C 119.398438 100.523438 119.496094 100.566406 119.574219 100.648438 C 119.652344 100.730469 119.691406 100.828125 119.695312 100.941406 C 119.695312 101.058594 119.652344 101.15625 119.570312 101.234375 C 119.484375 101.316406 119.386719 101.355469 119.269531 101.347656 Z M 119.269531 101.347656 " fill-opacity="1" fill-rule="nonzero"/><path fill="#e8e7e3" d="M 131.320312 90.660156 C 131.320312 90.660156 156.164062 99.617188 167.582031 96.632812 C 178.996094 93.652344 179.515625 88.789062 188.363281 90.660156 C 197.210938 92.535156 200.679688 92.792969 208.710938 90.238281 C 210.25 96.265625 210.695312 102.375 210.054688 108.5625 C 209.484375 113.3125 208.34375 117.921875 206.625 122.390625 C 202.164062 134.652344 199.121094 143.757812 191.148438 148.214844 C 180.984375 153.945312 169.390625 150.304688 159.574219 147.382812 C 154.285156 145.792969 149.25 143.613281 144.476562 140.835938 C 139.699219 138.058594 135.316406 134.765625 131.320312 130.953125 C 133.472656 128.980469 138.441406 124.347656 139.609375 116.867188 C 141.644531 103.890625 131.320312 90.660156 131.320312 90.660156 Z M 131.320312 90.660156 " fill-opacity="1" fill-rule="nonzero"/><path fill="#c6c6c6" d="M 153.285156 96.433594 C 153.285156 96.433594 142.546875 95.777344 137.785156 96.433594 C 133.019531 97.09375 146.121094 101.980469 142.96875 115.269531 C 139.816406 128.554688 136.558594 136.585938 147.757812 142.683594 C 140.050781 140.382812 135.648438 136.753906 133.4375 134.535156 C 131.835938 132.9375 131.136719 131.835938 130.996094 130.53125 C 130.5625 126.714844 135.304688 125.53125 137.785156 120.75 C 141.410156 113.761719 138.25 102.773438 133.613281 96.351562 C 131.945312 94 129.742188 91.878906 130.351562 90.960938 C 131.378906 89.429688 137.140625 92.953125 153.285156 96.433594 Z M 153.285156 96.433594 " fill-opacity="1" fill-rule="nonzero"/><path fill="#c6c6c6" d="M 141.761719 104.507812 C 141.761719 104.507812 143.8125 107.339844 142.96875 113.042969 C 142.128906 118.75 164.761719 126.605469 172.160156 128.78125 C 179.554688 130.953125 157.023438 131.136719 145.890625 123.582031 C 134.757812 116.027344 141.71875 116.644531 141.71875 116.644531 Z M 141.761719 104.507812 " fill-opacity="1" fill-rule="nonzero"/></svg>