<svg xmlns="http://www.w3.org/2000/svg" xmlns:xlink="http://www.w3.org/1999/xlink" width="500" zoomAndPan="magnify" viewBox="0 0 375 374.999991" height="500" preserveAspectRatio="xMidYMid meet" version="1.0"><defs><clipPath id="caed84bd16"><path d="M 187.5 0 C 83.945312 0 0 83.945312 0 187.5 C 0 291.054688 83.945312 375 187.5 375 C 291.054688 375 375 291.054688 375 187.5 C 375 83.945312 291.054688 0 187.5 0 " clip-rule="nonzero"/></clipPath><clipPath id="50f90c0d3c"><path d="M 89 282 L 173 282 L 173 300.976562 L 89 300.976562 Z M 89 282 " clip-rule="nonzero"/></clipPath><clipPath id="91ff29e690"><path d="M 201 282 L 284 282 L 284 300.976562 L 201 300.976562 Z M 201 282 " clip-rule="nonzero"/></clipPath></defs><g clip-path="url(#caed84bd16)"><rect x="-37.5" width="450" fill="#5cb0bb" y="-37.499999" height="449.999989" fill-opacity="1"/></g><g clip-path="url(#50f90c0d3c)"><path fill="#000000" d="M 165.859375 286.734375 C 133.191406 299.570312 96.980469 282.691406 96.621094 282.519531 C 90.984375 279.933594 86.960938 288.28125 92.535156 291.0625 C 93.703125 291.617188 113.886719 301.082031 138.707031 301.082031 C 148.488281 301.082031 158.988281 299.613281 169.328125 295.546875 C 171.761719 294.589844 172.960938 291.84375 172.003906 289.40625 C 171.042969 286.980469 168.308594 285.792969 165.859375 286.734375 Z M 165.859375 286.734375 " fill-opacity="1" fill-rule="nonzero"/></g><path fill="#000000" d="M 315.292969 254.902344 C 285.488281 250.324219 253.738281 235.367188 245.796875 231.457031 C 240.710938 209.488281 244.230469 174.847656 246.765625 159.371094 C 267.128906 136.855469 282.921875 107.027344 282.921875 80.011719 C 282.789062 73.863281 273.59375 73.71875 273.449219 80.011719 C 273.449219 129.644531 217 185.5625 186.921875 185.5625 C 147.460938 182.527344 98.453125 121.0625 99.316406 79.339844 C 99.316406 76.722656 97.195312 74.605469 94.582031 74.605469 C 91.964844 74.605469 89.84375 76.722656 89.84375 79.339844 C 89.84375 106.59375 105.914062 136.699219 126.59375 159.371094 C 129.144531 175.101562 132.605469 209.585938 127.554688 231.464844 C 119.585938 235.382812 87.859375 250.328125 58.070312 254.902344 C 55.484375 255.300781 53.710938 257.71875 54.109375 260.304688 C 54.464844 262.644531 56.484375 264.316406 58.78125 264.316406 C 83.0625 260.886719 108.402344 250.617188 122.441406 244.339844 C 120.289062 247.101562 117.890625 250.203125 121.085938 253.28125 C 123.011719 255.042969 126.007812 254.917969 127.78125 252.988281 C 144.4375 232.167969 139.621094 192.558594 137.683594 170.414062 C 154.226562 185.335938 172.265625 195.03125 186.921875 195.03125 C 201.425781 195.03125 219.28125 185.375 235.652344 170.523438 C 233.308594 190.15625 229.257812 245.8125 249.078125 254.523438 C 253.015625 254.640625 255.410156 249.476562 252.570312 246.589844 C 251.96875 245.933594 251.453125 245.121094 250.917969 244.339844 C 264.875 250.617188 289.617188 260.539062 313.855469 264.261719 C 319.890625 265.109375 321.539062 256 315.292969 254.902344 Z M 315.292969 254.902344 " fill-opacity="1" fill-rule="nonzero"/><g clip-path="url(#91ff29e690)"><path fill="#000000" d="M 276.742188 282.519531 C 276.382812 282.695312 240.175781 299.578125 207.503906 286.734375 C 201.683594 284.566406 198.269531 293.167969 204.035156 295.546875 C 214.375 299.613281 224.875 301.082031 234.65625 301.082031 C 259.476562 301.082031 279.660156 291.617188 280.828125 291.0625 C 286.375 288.292969 282.417969 279.929688 276.742188 282.519531 Z M 276.742188 282.519531 " fill-opacity="1" fill-rule="nonzero"/></g><path fill="#000000" d="M 162.503906 143.445312 C 178.46875 151.894531 194.09375 153.398438 208.535156 143.109375 C 210.660156 141.582031 211.144531 138.625 209.613281 136.503906 C 208.082031 134.378906 205.128906 133.894531 203.003906 135.425781 C 192.863281 142.710938 181.070312 142.605469 166.957031 135.085938 C 161.417969 132.273438 157.054688 140.421875 162.503906 143.445312 Z M 162.503906 143.445312 " fill-opacity="1" fill-rule="nonzero"/></svg>